<svg width="18" height="18" viewBox="0 0 18 18" fill="none" xmlns="http://www.w3.org/2000/svg">
<path d="M11.0834 11.8417C11.1501 11.9167 11.1501 12.075 11.0834 12.1667C10.4751 12.75 9.34175 12.8 9.00008 12.8C8.67508 12.8 7.54175 12.75 6.95008 12.1667C6.86675 12.075 6.86675 11.9167 6.95008 11.8417C7.04175 11.7583 7.18341 11.7583 7.26675 11.8417C7.65008 12.225 8.44175 12.3333 9.00008 12.3333C9.57508 12.3333 10.3834 12.225 10.7501 11.8417C10.8417 11.7583 10.9834 11.7583 11.0834 11.8417ZM7.95841 9.86666C7.95841 9.39166 7.56675 8.99999 7.09175 8.99999C6.61675 8.99999 6.22508 9.39166 6.22508 9.86666C6.22508 10.3417 6.61675 10.7417 7.09175 10.7333C7.56675 10.7333 7.95841 10.3417 7.95841 9.86666ZM10.9084 8.99999C10.4334 8.99999 10.0417 9.41666 10.0417 9.87499C10.0417 10.3333 10.4334 10.7417 10.9084 10.7417C11.3834 10.7417 11.7751 10.3417 11.7751 9.87499C11.7751 9.41666 11.3834 8.99999 10.9084 8.99999ZM17.3334 8.99999C17.3334 13.5833 13.5834 17.3333 9.00008 17.3333C4.41675 17.3333 0.666748 13.5833 0.666748 8.99999C0.666748 4.41666 4.41675 0.666656 9.00008 0.666656C13.5834 0.666656 17.3334 4.41666 17.3334 8.99999ZM14.5584 8.99999C14.5584 8.32499 14.0001 7.78332 13.3501 7.78332C13.0167 7.78332 12.7167 7.91666 12.5001 8.12499C11.6667 7.52499 10.5251 7.14166 9.25008 7.09166L9.80841 4.48332L11.6167 4.87499C11.6334 5.33332 12.0167 5.69999 12.4834 5.69999C12.9584 5.69999 13.3501 5.30832 13.3501 4.83332C13.3501 4.35832 12.9584 3.96666 12.4834 3.96666C12.1417 3.96666 11.8417 4.16666 11.7084 4.45832L9.68341 4.02499C9.62508 3.99999 9.56675 4.02499 9.52508 4.05832C9.47508 4.09166 9.45008 4.14166 9.44175 4.19999L8.82508 7.09999C7.53341 7.14166 6.36675 7.52499 5.51675 8.13332C5.30008 7.92499 5.00008 7.79999 4.67508 7.79999C4.00008 7.79999 3.45841 8.34166 3.45841 8.99999C3.45841 9.50832 3.75841 9.92499 4.17508 10.1167C4.15841 10.25 4.15008 10.35 4.15008 10.4833C4.15008 12.3333 6.32508 13.875 9.00008 13.875C11.6917 13.875 13.8751 12.3583 13.8751 10.4833C13.8751 10.3667 13.8667 10.25 13.8417 10.1167C14.2584 9.92499 14.5584 9.49999 14.5584 8.99999Z" fill="white"/>
</svg>
