<svg width="18" height="20" viewBox="0 0 18 20" fill="none" xmlns="http://www.w3.org/2000/svg">
<path d="M17.3334 20L12.9584 15.8333L13.4834 17.5H2.75008C2.19755 17.5 1.66764 17.2805 1.27694 16.8898C0.886241 16.4991 0.666748 15.9692 0.666748 15.4167V2.91668C0.666748 2.36414 0.886241 1.83424 1.27694 1.44354C1.66764 1.05284 2.19755 0.833344 2.75008 0.833344H15.2501C15.8026 0.833344 16.3325 1.05284 16.7232 1.44354C17.1139 1.83424 17.3334 2.36414 17.3334 2.91668V20ZM9.00008 5.66668C6.76675 5.66668 5.20008 6.62501 5.20008 6.62501C6.05841 5.85834 7.55841 5.41668 7.55841 5.41668L7.41675 5.27501C6.00841 5.30001 4.73341 6.27501 4.73341 6.27501C3.30008 9.26668 3.39175 11.85 3.39175 11.85C4.55841 13.3583 6.29175 13.25 6.29175 13.25L6.88341 12.5C5.84175 12.275 5.18341 11.35 5.18341 11.35C5.18341 11.35 6.75008 12.4167 9.00008 12.4167C11.2501 12.4167 12.8167 11.35 12.8167 11.35C12.8167 11.35 12.1584 12.275 11.1167 12.5L11.7084 13.25C11.7084 13.25 13.4417 13.3583 14.6084 11.85C14.6084 11.85 14.7001 9.26668 13.2667 6.27501C13.2667 6.27501 11.9917 5.30001 10.5834 5.27501L10.4417 5.41668C10.4417 5.41668 11.9417 5.85834 12.8001 6.62501C12.8001 6.62501 11.2334 5.66668 9.00008 5.66668ZM7.27508 8.82501C7.81675 8.82501 8.25841 9.30001 8.25008 9.88334C8.25008 10.4583 7.81675 10.9417 7.27508 10.9417C6.74175 10.9417 6.30841 10.4583 6.30841 9.88334C6.30841 9.30001 6.73341 8.82501 7.27508 8.82501ZM10.7501 8.82501C11.2917 8.82501 11.7251 9.30001 11.7251 9.88334C11.7251 10.4583 11.2917 10.9417 10.7501 10.9417C10.2167 10.9417 9.78341 10.4583 9.78341 9.88334C9.78341 9.30001 10.2084 8.82501 10.7501 8.82501Z" fill="white"/>
</svg>
