<svg width="18" height="17" viewBox="0 0 18 17" fill="none" xmlns="http://www.w3.org/2000/svg">
<path d="M9.00008 0.666656C7.90573 0.666656 6.8221 0.882205 5.81105 1.30099C4.80001 1.71978 3.88135 2.33361 3.10752 3.10743C1.54472 4.67024 0.666748 6.78985 0.666748 8.99999C0.666748 12.6833 3.05841 15.8083 6.36675 16.9167C6.78341 16.9833 6.91675 16.725 6.91675 16.5V15.0917C4.60841 15.5917 4.11675 13.975 4.11675 13.975C3.73341 13.0083 3.19175 12.75 3.19175 12.75C2.43341 12.2333 3.25008 12.25 3.25008 12.25C4.08341 12.3083 4.52508 13.1083 4.52508 13.1083C5.25008 14.375 6.47508 14 6.95008 13.8C7.02508 13.2583 7.24175 12.8917 7.47508 12.6833C5.62508 12.475 3.68341 11.7583 3.68341 8.58332C3.68341 7.65832 4.00008 6.91666 4.54175 6.32499C4.45841 6.11666 4.16675 5.24999 4.62508 4.12499C4.62508 4.12499 5.32508 3.89999 6.91675 4.97499C7.57508 4.79166 8.29175 4.69999 9.00008 4.69999C9.70841 4.69999 10.4251 4.79166 11.0834 4.97499C12.6751 3.89999 13.3751 4.12499 13.3751 4.12499C13.8334 5.24999 13.5417 6.11666 13.4584 6.32499C14.0001 6.91666 14.3167 7.65832 14.3167 8.58332C14.3167 11.7667 12.3667 12.4667 10.5084 12.675C10.8084 12.9333 11.0834 13.4417 11.0834 14.2167V16.5C11.0834 16.725 11.2167 16.9917 11.6417 16.9167C14.9501 15.8 17.3334 12.6833 17.3334 8.99999C17.3334 7.90564 17.1179 6.82201 16.6991 5.81096C16.2803 4.79991 15.6665 3.88125 14.8926 3.10743C14.1188 2.33361 13.2002 1.71978 12.1891 1.30099C11.1781 0.882205 10.0944 0.666656 9.00008 0.666656Z" fill="white"/>
</svg>
